PathFileType	4	(X/Y/Z)	1_2_rein_92_p1_0-370_filt_butterworth.trc
DataRate	CameraRate	NumFrames	NumMarkers	Units	OrigDataRate	OrigDataStartFrame	OrigNumFrames
60.0	60.0	7	27	m	60.0	92	370
Frame#	Time	RHip			RKnee			RAnkle			RBigToe			RSmallToe			RHeel			LHip			LKnee			LAnkle			LBigToe			LSmallToe			LHeel			Neck			Head			Nose			RShoulder			RElbow			RWrist			RThumb			RIndex			RPinky			LShoulder			LElbow			LWrist			LThumb			LIndex			LPinky			
		X1	Y1	Z1	X2	Y2	Z2	X3	Y3	Z3	X4	Y4	Z4	X5	Y5	Z5	X6	Y6	Z6	X7	Y7	Z7	X8	Y8	Z8	X9	Y9	Z9	X10	Y10	Z10	X11	Y11	Z11	X12	Y12	Z12	X13	Y13	Z13	X14	Y14	Z14	X15	Y15	Z15	X16	Y16	Z16	X17	Y17	Z17	X18	Y18	Z18	X19	Y19	Z19	X20	Y20	Z20	X21	Y21	Z21	X22	Y22	Z22	X23	Y23	Z23	X24	Y24	Z24	X25	Y25	Z25	X26	Y26	Z26	X27	Y27	Z27	
92	1.5333333333333334	0.3747071382487972	0.33229073593274977	1.4326273500195943	0.3028246067589341	0.16310340809702709	1.5954554809856376	0.3361923982848511	0.4502852150262787	2.011567784457796	0.35051364871414364	0.22506902973112536	2.021644254249274	0.4060899047505409	0.3046296669460528	2.045134291234212	0.3345889607149354	0.48068286233711477	2.0378467547967434	0.1668252016680143	0.34027763734297223	1.4369159459637464	0.1106735116455409	0.15069635122736957	1.5978890117219486	0.20173902333748922	0.40373683772146907	1.9808287829101605	0.17405650480596813	0.21265648478714422	2.028210308883507	0.13594254946322445	0.24695612577811604	2.0042336654549078	0.21545488801920942	0.4658034341110573	2.034800379351785	0.24417275131577598	0.1733547717700603	1.01980802746712	0.22500145208764294	0.037587006212592	0.721966908535158	0.2267593232074164	0.002931379580924591	0.8924560105611947	0.41501638077540537	0.1269173349436389	1.044406378820975	0.4823963538471322	0.07200720826744482	1.3510279905430282	0.33295151560585096	-0.08207247865250017	1.2113042450914009	0.2494593610831482	-0.0995269959051463	1.1305340059535074	0.25321989737977324	-0.12023917608258096	1.1086186772153248	0.26294455011736784	-0.1276431690218099	1.1707285358765895	0.05576397543395728	0.18499088403061292	1.0616171905239575	0.03681112830821689	0.2317118594160563	1.349791101103935	0.16735026435996925	0.058996224044077936	1.5086510592673048	0.24974318261613104	0.08295265477509452	1.6062875497210294	0.2353089534415619	0.05871697046938544	1.642530719359954	0.17878872634347023	0.04799992241486845	1.640705084790401
93	1.55	0.37478076864356585	0.34069929725481085	1.4369217784117991	0.3015864201548866	0.16702513165575472	1.593722527037884	0.33686523008581787	0.4505979579942311	2.010193282058396	0.35041639129369717	0.22610095718193773	2.019904346535933	0.4041042126142457	0.30462939627411545	2.042735963694933	0.3342941283419458	0.48138353819412694	2.0365547835551867	0.16701204354902777	0.3435616303452904	1.439292175920213	0.11269435686540241	0.1566082040711644	1.6018180806831623	0.2018214383482508	0.4008388906074171	1.9808159919652921	0.17434423716767186	0.21013900098995963	2.0276263095271005	0.1359568569968138	0.24644352844150416	2.0038544369952525	0.21748222429953423	0.46474112546896507	2.040826448525704	0.24438063394780207	0.17434078305402612	1.0237393522420029	0.22413881399366753	0.0375877166069833	0.7239124145541682	0.2245339744784049	0.006181576921772465	0.8978599674432035	0.41397850142684717	0.13251631024572422	1.0478558169826844	0.48380378433219795	0.07317073415196185	1.3524661597686092	0.3260835801327106	-0.06249978619664347	1.2110411409154485	0.24617240965490939	-0.09558943077047617	1.1275923723234793	0.24847644416343798	-0.11228259547355837	1.099787509789539	0.2616112751524381	-0.1224044974621313	1.1614455151916248	0.0534171164868949	0.18751570602784684	1.0629208444298335	0.035550875656515844	0.23078526077464426	1.352170127940945	0.1686843987089529	0.05499694544902339	1.5088497678637476	0.25398951974672196	0.0768723214078327	1.6048288390297605	0.24024900884409037	0.06259254661106531	1.6426514494948423	0.18111808100770863	0.043462189611888365	1.639974735361899
94	1.5666666666666669	0.3738944946068847	0.35172253038528545	1.4420406905684409	0.29952736833926064	0.1650838923591279	1.5924859819183539	0.33702387999292605	0.45158556052583715	2.00831787817166	0.3502967113295787	0.2277156808951127	2.017290514605891	0.40253541244573465	0.3053207473469451	2.039969139612322	0.3341601768000372	0.4835420711703011	2.0330685550656042	0.16770565879888985	0.3441784317038857	1.4417313344063218	0.11414519373285664	0.16322719564562718	1.6062308946599295	0.20201990456981986	0.39765380502267905	1.9811403328277999	0.17381220871668862	0.20767633604234942	2.026508892756347	0.13583103861690915	0.24623832365216597	2.0035262888907774	0.22003069661488361	0.46467679664066286	2.0472553518993584	0.24223240544476615	0.17431577246719226	1.0272664086973482	0.22354403139515808	0.03755367008046467	0.7249660061549885	0.22235438559239995	0.009143626544362057	0.9015985851412361	0.4116876856946724	0.14288808082742635	1.0522780342824793	0.48475043745918484	0.07361967873112901	1.3532486370848216	0.3188484288448213	-0.042951664771433806	1.2105669736864457	0.2412005263157094	-0.08790029683704385	1.1255958904490537	0.2432564228388505	-0.10209440039147619	1.0901050754430686	0.2590745587638786	-0.1154032449590256	1.150401276748123	0.05243617098578642	0.1884426130788198	1.0637013777846531	0.034640316692250275	0.2299395032351923	1.355227823593407	0.16949916387453548	0.054067031008159905	1.5090993472009555	0.25750170202338546	0.07198502602845536	1.60237828375417	0.24533693852629984	0.06746261303339034	1.643023391389457	0.1834032821451612	0.04077742871562572	1.6402053981427138
95	1.5833333333333333	0.3693662921160341	0.3619369546230605	1.4483060972654689	0.2955571333094502	0.15807087708781997	1.592432289381133	0.3368815623181153	0.45346496308830603	2.0057900473626176	0.35021914275545796	0.2298086046888999	2.014142158384244	0.4019389476860597	0.3068408869365428	2.037299933633216	0.3350080821732364	0.4873098475208637	2.0285307704944513	0.16715139212306523	0.3419708841233688	1.4445644686531471	0.11518341670910237	0.16724161658457173	1.6100603151231354	0.2019075234407736	0.3962616712387297	1.9828872878302533	0.17284028258635176	0.20602836751298007	2.024497016814072	0.1356808144535113	0.24598806996593112	2.0039312790417285	0.22171503174816298	0.46473310145766633	2.051255056773642	0.2388331721620192	0.17418119009296798	1.0301271561699126	0.22333134378863706	0.037366859028193866	0.7252525109663228	0.22080635661087217	0.011386405662690667	0.9036659730293598	0.40871529469145235	0.15516023745280946	1.0564006733085636	0.4854258569605598	0.0722711929763848	1.3529915109405442	0.3133550685258741	-0.029750354875171393	1.2097112857687944	0.23537861257612955	-0.07831127743419475	1.1247373155152047	0.2390397949193849	-0.09211181903906698	1.0819816034505503	0.2565011340287914	-0.10709597521764161	1.1417333779813077	0.05238349858519985	0.18815926805737115	1.0645768084961744	0.034275889414190006	0.22853754170222093	1.3589921487679866	0.1705581892508004	0.055083255632788694	1.5098143966201027	0.2599971164561	0.06854248125375884	1.5992136665066716	0.24909064924648072	0.06957890377635369	1.6435290779948741	0.18619330939024636	0.03916210655543444	1.6411729556389574
96	1.6	0.36140417057689156	0.3691702615349097	1.4540518377750244	0.2912837000308601	0.14937743639030385	1.5919926264742759	0.33661939847483374	0.45554519144067473	2.002849720248507	0.3502166563026017	0.23177914544434844	2.0112632672574127	0.40194336967835426	0.3086066526812651	2.035099417258633	0.3372864301684643	0.491521618546497	2.0242681431306853	0.16432873083455207	0.33907213962143	1.4472036561836639	0.11706204425230321	0.16701023765692588	1.612175317372953	0.20117695375324568	0.3968713211500824	1.9863049227436553	0.1723497319863554	0.2052642090481555	2.0219146401498476	0.13553122178098828	0.24576271579443293	2.0047769590276934	0.22215782185785776	0.46473157699398693	2.0522749488728405	0.2361355284767714	0.17416525319434564	1.0318170710328487	0.22339545817676437	0.0369336501780744	0.7252351433027536	0.2203889745783938	0.01317411968045758	0.9046841386914604	0.4061879623046287	0.1648854676513922	1.0589292165357373	0.48634384926638213	0.06890642346970076	1.3514534085250187	0.31056108489372375	-0.025060958243287485	1.20902228067785	0.23034595604984046	-0.07073166463819854	1.1251089270346657	0.23640904406069374	-0.08565566969007134	1.077780397186465	0.2550960159740474	-0.09957898805094606	1.1381718198022062	0.05258979536827445	0.1874808425096326	1.065684602426397	0.034076065817558045	0.2256929842807091	1.3624954183225464	0.17237627301625633	0.056610164559501845	1.511442282891145	0.26241522504219195	0.06500282539916132	1.5950733442995966	0.25159666861173485	0.06859188548069012	1.6439514141853706	0.18959439989091634	0.03806222926098179	1.6419746252613312
97	1.6166666666666667	0.3536228496402337	0.3763131826354364	1.4569974013339453	0.28883148183176616	0.14336549926434863	1.5889463641378927	0.33602880525571593	0.45692206650607425	2.0001327780594726	0.35027423192710044	0.23300485617965236	2.009392986345813	0.40198348098383235	0.3097806572526869	2.0337603832975413	0.3403196913417796	0.49448952624401415	2.021123685444039	0.16029056014773332	0.34007305642579805	1.4489313998168412	0.11991743618041058	0.1647034610108093	1.6127854503971126	0.20060638470939704	0.39747861771631376	1.9904455440751065	0.17345090837573512	0.20507323737650562	2.0198760414179913	0.1354366117936432	0.24580200211498243	2.005541348475923	0.22187500516740666	0.46447862812103385	2.0518089896727045	0.2351144850745082	0.17416163205357213	1.0323939408474083	0.22355249681166062	0.036546024349969064	0.7252356213993464	0.22080076000878446	0.015759614109137805	0.9056018971743539	0.40485652093437074	0.16969304897594897	1.0597676531122286	0.48777851670917666	0.06503817651584781	1.3488327410018641	0.3104066364896184	-0.026681718232959506	1.2090683663686517	0.22774003327844772	-0.0678523003848898	1.1257002809677512	0.2350899751591996	-0.08345817927628275	1.0769552715342217	0.25519541833757575	-0.09532454469571447	1.1382338168062038	0.0526701138592289	0.1869619725285021	1.0664955375641187	0.03378789609211402	0.22191221190789887	1.3647253286238938	0.1749685949283622	0.05764326096323433	1.5137508269768711	0.2655910417669647	0.06004683718973217	1.5898248745192558	0.2538492799446059	0.06750952944929263	1.644227174793036	0.19312067803399227	0.037681148377351925	1.6420512367580213
98	1.6333333333333333	0.3496740792998507	0.3887600520065273	1.456949778620956	0.2881929143044197	0.14339794439884135	1.583927072615616	0.3351245191507179	0.45729298707629856	1.9984405732837167	0.3503637888287193	0.23338323866291044	2.008597963487516	0.40171789813715797	0.30979090033547496	2.033316998328134	0.34277633553121534	0.4957927581297141	2.019229352985718	0.1578764529440732	0.34967845562126904	1.4500128111393171	0.1220483310214471	0.163280572620979	1.6123174181769786	0.2014316038138734	0.39618898843783196	1.9939475844807215	0.1767879180887397	0.20510621504350401	2.018913467655003	0.13555601126318867	0.24602813897778475	2.006525689380882	0.22143310425218257	0.4636979243772578	2.0515123209922557	0.23497477591143134	0.17402405974842702	1.03213873755021	0.2235484177662777	0.0372391220477173	0.7252998991221196	0.2204408044176005	0.01987871132465569	0.907048082626739	0.40445420237043345	0.17051103571554763	1.0595442822073815	0.48962726869775364	0.06280749050720011	1.345588839369466	0.3123054332814057	-0.031006070372391555	1.2091496899547771	0.22837425243274273	-0.06914011507591837	1.123960222274977	0.235135610790487	-0.0835644460491117	1.0767889206001413	0.2565186365662497	-0.09683390333477546	1.1385161786924343	0.05240064470105036	0.18675381325448595	1.066361198075328	0.0334370326031722	0.2184816030939613	1.365585609885402	0.17804835274571826	0.058006802288846096	1.5160861347515806	0.26966146400176677	0.055049020047730095	1.5851711030246496	0.2563930981957543	0.06657163282107009	1.644134634052877	0.19621257430853611	0.03851038803671863	1.6418880658370987
